<svg width="69" height="39" viewBox="0 0 69 39" fill="none" xmlns="http://www.w3.org/2000/svg">
<rect x="3.81287" y="0.405762" width="6.86315" height="4.95672" rx="2.47836" fill="white"/>
<rect y="33.1964" width="5.71929" height="4.95672" rx="2.47836" fill="white"/>
<path fill-rule="evenodd" clip-rule="evenodd" d="M17.904 0.215136H48.9953C51.6999 0.714896 55.6148 2.1639 58.966 4.90566L55.0959 8.03151C50.7111 5.10832 40.3019 2.00719 33.7438 12.9882C31.5197 17.4366 30.0453 27.6296 41.9415 32.8151C45.8814 34.3403 55.0196 34.7597 60.0526 24.2362C60.8152 21.5036 61.5015 15.0853 58.1461 11.2724L61.5679 7.47049C64.1443 10.5547 65.8939 14.729 65.5812 20.2327C65.1999 25.5071 61.3489 36.4755 48.9953 38.1531H11.8013C11.7174 38.1531 11.6341 38.1533 11.5512 38.1535C10.0365 38.1574 8.69033 38.1609 7.90239 36.8471C6.55131 34.5945 10.7641 33.0058 13.3909 33.0058H14.9095C17.2234 33.0058 19.7991 32.6498 20.0733 30.3522C20.3077 28.3877 17.4338 27.4771 15.4553 27.4771H14.9489C13.3987 27.4771 11.5562 27.1837 11.0933 25.7043C11.0639 25.6101 11.0397 25.5132 11.0215 25.4137C10.582 23.0113 13.9327 22.1391 16.375 22.1391H20.0432C22.3671 22.1391 24.9338 21.8183 25.144 19.504C25.3153 17.6183 22.6118 16.6104 20.7183 16.6104H10.7689C8.86551 16.6104 6.91371 16.3528 6.52838 14.4888C6.12981 12.5607 8.89109 11.4631 10.8599 11.4631H17.151C18.7423 11.4631 20.4515 10.8923 20.964 9.38582C21.2159 8.64533 21.2538 7.83985 20.8337 7.10101C20.288 6.14098 19.0519 5.93443 17.9476 5.93443C15.9317 5.93443 13.3625 5.46448 13.2729 3.45058C13.2633 3.23631 13.2786 3.01128 13.3239 2.77615C13.6916 0.868747 15.9615 0.215136 17.904 0.215136Z" fill="white"/>
<path d="M45.3731 24.0455L41.8256 19.4469C40.7807 18.0924 39.6447 16.1274 40.8491 14.9125C41.0043 14.756 41.1805 14.6345 41.3699 14.5425C42.8544 13.8216 44.3734 15.2266 45.3524 16.5552L46.5169 18.1356C46.9745 18.4406 47.4702 18.2627 47.6608 18.1356L67.1064 0.02448C67.869 -0.128035 68.0596 0.469314 68.0596 0.787052L48.0421 24.0455C46.6695 25.1131 45.6908 24.4903 45.3731 24.0455Z" fill="white"/>
</svg>
