<svg width="228" height="83" viewBox="0 0 228 83" fill="none" xmlns="http://www.w3.org/2000/svg">
<g filter="url(#filter0_d_7_3)">
<path d="M26.5092 10.1151L26.9031 42.7559C26.9031 49.4391 32.4002 54.9388 39.0837 54.9388C45.7672 54.9388 51.2643 49.4422 51.2643 42.7559C51.2643 36.1106 45.8447 30.6394 39.2102 30.5729" stroke="white" stroke-width="11" stroke-miterlimit="10"/>
<path d="M39.43 19.609C52.0948 19.7387 62.4433 30.1972 62.4402 42.8676C62.4402 55.6234 51.9397 66.1167 39.1832 66.1151C26.4266 66.1135 15.9341 55.6092 15.9341 42.8533" stroke="white" stroke-width="8" stroke-miterlimit="10"/>
<path d="M80.0454 18.8565C80.504 18.8565 80.9439 19.0386 81.2683 19.3629C81.5925 19.6872 81.7748 20.127 81.7748 20.5855V31.1478H81.868C82.6676 29.9049 83.8314 28.9391 85.2003 28.382C86.5859 27.8032 88.0728 27.5062 89.5744 27.508C90.8719 27.5136 92.1539 27.7901 93.3385 28.3194C94.523 28.8487 95.5842 29.6193 96.454 30.582C97.4151 31.6219 98.1955 32.9531 98.7951 34.5758C99.3947 36.1985 99.6941 38.1287 99.693 40.3666C99.693 42.6046 99.3938 44.5348 98.7951 46.1575C98.1965 47.7801 97.4162 49.1118 96.454 50.1529C95.5841 51.1152 94.5229 51.8856 93.3382 52.4145C92.1537 52.9437 90.8717 53.2198 89.5744 53.2253C87.7765 53.2253 86.1689 52.9413 84.7514 52.3735C83.3642 51.8361 82.221 50.811 81.5361 49.4907H81.4412V50.8815C81.4414 51.1085 81.3968 51.3334 81.3102 51.5431C81.2234 51.7528 81.0961 51.9434 80.9357 52.104C80.7752 52.2646 80.5847 52.3919 80.375 52.4789C80.1652 52.5658 79.9404 52.6105 79.7134 52.6105H76.7874C76.3286 52.6105 75.8888 52.4283 75.5645 52.1041C75.2402 51.7798 75.058 51.34 75.058 50.8815V20.5855C75.058 20.127 75.2402 19.6872 75.5645 19.3629C75.8888 19.0386 76.3286 18.8565 76.7874 18.8565H80.0454ZM92.649 37.4365C92.4519 36.5465 92.0998 35.6979 91.6088 34.9298C91.1577 34.2267 90.5508 33.6367 89.8352 33.2055C89.127 32.7788 88.2682 32.5681 87.2585 32.5734C86.366 32.5496 85.4838 32.7681 84.7055 33.2055C83.9796 33.6316 83.3639 34.2223 82.9082 34.9298C82.4172 35.6979 82.0651 36.5465 81.868 37.4365C81.6445 38.4132 81.5337 39.4122 81.5376 40.4141C81.5353 41.4003 81.6461 42.3833 81.868 43.3442C82.0648 44.2344 82.4169 45.0829 82.9082 45.8509C83.3638 46.5591 83.9795 47.1502 84.7055 47.5767C85.4841 48.0136 86.3662 48.232 87.2585 48.2089C88.2671 48.2089 89.1259 47.9982 89.8352 47.5767C90.551 47.1451 91.1578 46.5545 91.6088 45.8509C92.1 45.0829 92.4522 44.2344 92.649 43.3442C92.8708 42.3833 92.9818 41.4003 92.9794 40.4141C92.9829 39.412 92.8714 38.413 92.6474 37.4365H92.649Z" fill="white" stroke="white"/>
<path d="M104.809 28.1702C105.271 28.1702 105.713 28.3534 106.039 28.6796C106.365 29.0058 106.549 29.4482 106.549 29.9094V32.7047H106.643C106.961 31.9433 107.391 31.2339 107.919 30.6003C108.45 29.9615 109.074 29.4058 109.769 28.9512C110.458 28.496 111.206 28.1374 111.992 27.8856C112.787 27.6328 113.616 27.5053 114.451 27.5077C114.948 27.5164 115.441 27.5964 115.916 27.7449V33.987C115.6 33.9238 115.222 33.8711 114.781 33.8289C114.357 33.7829 113.931 33.7597 113.505 33.7593C112.275 33.7593 111.235 33.9638 110.384 34.3728C109.57 34.7532 108.864 35.3303 108.329 36.0519C107.794 36.7957 107.418 37.6411 107.222 38.5358C106.994 39.5438 106.882 40.5745 106.89 41.6079V50.8842C106.89 51.3454 106.707 51.7878 106.381 52.1139C106.054 52.4401 105.612 52.6234 105.151 52.6234H101.913C101.452 52.6234 101.009 52.4401 100.683 52.1139C100.357 51.7878 100.174 51.3454 100.174 50.8842V29.9157C100.174 29.4545 100.357 29.0121 100.683 28.6859C101.009 28.3597 101.452 28.1765 101.913 28.1765L104.809 28.1702Z" fill="white" stroke="white"/>
<path d="M116.337 35.9236C116.256 35.9234 116.177 35.9067 116.103 35.8741C116.03 35.8416 115.964 35.794 115.909 35.7344C115.855 35.675 115.814 35.6048 115.789 35.5287C115.763 35.4523 115.754 35.3716 115.761 35.2915C115.913 33.9977 116.288 32.9021 116.887 32.0045C117.567 30.9779 118.473 30.1204 119.536 29.4981C120.658 28.8495 121.881 28.3943 123.154 28.1517C124.485 27.8848 125.84 27.7498 127.197 27.7487C128.449 27.75 129.7 27.8366 130.94 28.0079C132.138 28.1623 133.303 28.5052 134.394 29.024C135.406 29.5041 136.284 30.2266 136.949 31.1274C137.611 32.0261 137.942 33.2154 137.942 34.6957V47.4108C137.94 48.4672 138.004 49.5227 138.132 50.5714C138.168 50.8555 138.143 51.1439 138.059 51.4176C137.974 51.6914 137.833 51.944 137.643 52.1588C137.454 52.3737 137.221 52.5457 136.959 52.6636C136.698 52.7814 136.415 52.8423 136.128 52.8423H131.976C131.72 52.075 131.56 51.2787 131.502 50.4718C130.46 51.5556 129.157 52.3533 127.717 52.7886C126.277 53.2329 124.778 53.461 123.271 53.4649C122.169 53.4731 121.071 53.3301 120.009 53.0398C119.046 52.7795 118.146 52.3293 117.36 51.7155C116.598 51.1106 115.99 50.3334 115.587 49.4478C115.166 48.5344 114.955 47.4471 114.955 46.1861C114.955 44.7997 115.199 43.6571 115.687 42.7584C116.14 41.9016 116.791 41.1643 117.585 40.6076C118.388 40.0575 119.28 39.6492 120.222 39.4003C121.211 39.1351 122.214 38.9241 123.227 38.7681C124.235 38.6112 125.229 38.4853 126.206 38.3904C127.083 38.3122 127.952 38.1701 128.809 37.9653C129.461 37.8247 130.074 37.542 130.605 37.1373C131.046 36.7749 131.251 36.248 131.22 35.557C131.22 34.8321 131.102 34.2569 130.866 33.8313C130.643 33.4221 130.316 33.0795 129.917 32.8388C129.495 32.5931 129.029 32.4321 128.544 32.3648C127.989 32.2831 127.427 32.2436 126.865 32.2462C125.541 32.2462 124.501 32.5302 123.745 33.098C123.086 33.5911 122.665 34.3706 122.48 35.4369C122.459 35.5696 122.392 35.6908 122.291 35.7796C122.19 35.8686 122.061 35.9195 121.927 35.9236H116.337ZM131.218 40.8873C130.907 41.1539 130.545 41.3551 130.154 41.4783C129.705 41.6259 129.248 41.7442 128.783 41.8323C128.293 41.9272 127.782 42.0062 127.246 42.0694C126.71 42.1326 126.174 42.21 125.638 42.3048C125.134 42.3998 124.636 42.5259 124.147 42.6825C123.69 42.8233 123.259 43.0368 122.871 43.3147C122.507 43.5836 122.208 43.931 121.996 44.3308C121.758 44.8158 121.644 45.3523 121.664 45.8921C121.647 46.4155 121.761 46.9348 121.996 47.4029C122.204 47.8002 122.514 48.135 122.895 48.3732C123.301 48.62 123.75 48.7883 124.218 48.8694C124.733 48.9652 125.255 49.0127 125.779 49.0116C127.102 49.0116 128.127 48.7909 128.853 48.3495C129.517 47.9705 130.072 47.4261 130.463 46.7692C130.793 46.1941 131.008 45.5601 131.095 44.9029C131.163 44.401 131.202 43.8954 131.212 43.3889L131.218 40.8873Z" fill="white" stroke="white"/>
<path d="M145.959 29.4287V52.0326C145.959 52.2849 145.86 52.5271 145.685 52.7055C145.51 52.8839 145.272 52.9841 145.024 52.9841H140.284C140.036 52.9841 139.799 52.8839 139.623 52.7055C139.448 52.5271 139.35 52.2849 139.35 52.0326V29.4287C139.348 29.3031 139.372 29.1785 139.418 29.0622C139.465 28.9458 139.534 28.84 139.621 28.7508C139.707 28.6616 139.811 28.5908 139.925 28.5426C140.039 28.4942 140.161 28.4693 140.284 28.4693H145.018C145.142 28.4685 145.265 28.4928 145.379 28.5406C145.494 28.5885 145.598 28.6593 145.686 28.7485C145.773 28.8378 145.842 28.9439 145.889 29.0606C145.936 29.1775 145.96 29.3026 145.959 29.4287Z" fill="white" stroke="white"/>
<path d="M152.151 28.4111C152.456 28.4111 152.749 28.5323 152.965 28.7481C153.181 28.964 153.303 29.2566 153.303 29.5619V31.8161H153.443C154.297 30.3965 155.401 29.3643 156.756 28.7193C158.054 28.0862 159.478 27.7544 160.922 27.7487C162.715 27.7487 164.192 27.9933 165.352 28.4822C166.422 28.91 167.361 29.6109 168.075 30.5151C168.768 31.4533 169.244 32.533 169.47 33.6767C169.749 35.0378 169.884 36.4244 169.872 37.8136V51.7009C169.872 51.8521 169.842 52.0016 169.785 52.141C169.727 52.2806 169.642 52.4074 169.535 52.5141C169.428 52.621 169.301 52.7055 169.161 52.7632C169.021 52.8208 168.871 52.8503 168.72 52.8502H164.303C164.152 52.8503 164.002 52.8208 163.863 52.7631C163.723 52.7054 163.596 52.6208 163.489 52.5141C163.382 52.4072 163.298 52.2805 163.24 52.141C163.182 52.0014 163.153 51.8519 163.153 51.7009V39.0498C163.153 37.0327 162.836 35.5278 162.204 34.5351C161.571 33.5423 160.451 33.046 158.843 33.046C157.014 33.046 155.69 33.5897 154.869 34.6773C154.048 35.7649 153.638 37.5564 153.638 40.052V51.7152C153.638 52.0199 153.517 52.3122 153.301 52.5279C153.085 52.7433 152.793 52.8644 152.488 52.8644H148.07C147.919 52.8646 147.77 52.835 147.63 52.7773C147.49 52.7196 147.364 52.635 147.257 52.5283C147.15 52.4215 147.065 52.2947 147.007 52.1553C146.95 52.0157 146.92 51.8661 146.92 51.7152V29.5571C146.92 29.4062 146.95 29.2565 147.007 29.1169C147.065 28.9773 147.15 28.8504 147.257 28.7435C147.363 28.6366 147.49 28.5517 147.63 28.4939C147.77 28.436 147.919 28.4063 148.07 28.4063L152.151 28.4111Z" fill="white" stroke="white"/>
<path d="M175.424 28.6513C176.262 28.6513 176.942 29.3753 176.942 30.2701V32.055H177.073C177.872 30.6374 178.907 29.605 180.18 28.958C181.384 28.3289 182.722 27.9966 184.082 27.9889C185.773 27.9889 187.155 28.2335 188.229 28.7224C189.247 29.1633 190.126 29.8675 190.779 30.7618C191.435 31.7113 191.881 32.7891 192.087 33.9236C192.35 35.2868 192.477 36.6726 192.464 38.0608V51.4794C192.464 52.3742 191.784 53.0983 190.946 53.0983H187.684C186.846 53.0983 186.167 52.3742 186.167 51.4794V39.2986C186.167 37.2814 185.871 35.7759 185.278 34.782C184.686 33.7881 183.636 33.2912 182.131 33.2912C180.416 33.2912 179.173 33.835 178.405 34.9227C177.636 36.0104 177.251 37.7995 177.253 40.2898V51.4858C177.253 52.3805 176.573 53.1046 175.734 53.1046H172.471C171.633 53.1046 170.954 52.3805 170.954 51.4858V30.2701C170.954 29.3753 171.633 28.6513 172.471 28.6513H175.424Z" fill="white" stroke="white"/>
<path d="M203.774 59.997C202.481 60.8486 200.683 61.2749 198.383 61.276C197.689 61.276 197.002 61.2523 196.327 61.2048C196.011 61.1827 195.681 61.1573 195.355 61.132C195.059 61.107 194.784 60.9723 194.583 60.7543C194.383 60.5362 194.272 60.2507 194.27 59.9542V55.4996L196.207 55.6817C196.868 55.7442 197.532 55.76 198.194 55.7292C199.075 55.6342 199.731 55.2875 200.156 54.6876C200.572 54.1088 200.794 53.4124 200.789 52.6993C200.792 52.1802 200.697 51.6654 200.506 51.1828L192.538 29.8121C192.473 29.6339 192.451 29.4425 192.474 29.2542C192.5 29.0659 192.569 28.8864 192.677 28.7307C192.786 28.5751 192.931 28.4483 193.099 28.361C193.268 28.2736 193.455 28.2283 193.644 28.2291H198.245C198.49 28.2308 198.729 28.3098 198.928 28.4545C199.127 28.5994 199.274 28.8029 199.352 29.0364L204.618 44.99H204.713L209.796 29.0475C209.872 28.8101 210.022 28.6027 210.223 28.4556C210.424 28.3086 210.666 28.2292 210.915 28.2291H215.32C215.51 28.2283 215.696 28.2736 215.866 28.361C216.033 28.4483 216.179 28.5751 216.288 28.7307C216.395 28.8864 216.465 29.0659 216.49 29.2542C216.514 29.4425 216.492 29.6339 216.427 29.8121L206.8 55.7355C206.074 57.7238 205.066 59.1442 203.774 59.997Z" fill="white" stroke="white"/>
<path d="M142.654 26.547C144.546 26.547 146.079 24.9868 146.079 23.0621C146.079 21.1374 144.546 19.5771 142.654 19.5771C140.763 19.5771 139.229 21.1374 139.229 23.0621C139.229 24.9868 140.763 26.547 142.654 26.547Z" fill="white" stroke="white"/>
<path d="M80.1649 63.8092C80.1649 63.606 80.131 63.4248 80.0633 63.2656C79.9955 63.1064 79.8838 62.9641 79.7279 62.8388C79.5755 62.71 79.3689 62.5915 79.1081 62.4831C78.8506 62.3713 78.5289 62.2612 78.1427 62.1528C77.7735 62.0478 77.4398 61.9327 77.1418 61.8073C76.8437 61.682 76.588 61.538 76.3746 61.3755C76.1645 61.2129 76.0036 61.0232 75.8919 60.8064C75.7801 60.5862 75.7242 60.3305 75.7242 60.0392C75.7242 59.7547 75.7852 59.4955 75.9071 59.2618C76.0291 59.0281 76.2001 58.8265 76.4203 58.6572C76.6438 58.4878 76.9064 58.3574 77.2078 58.266C77.5127 58.1745 77.8463 58.1288 78.2088 58.1288C78.727 58.1288 79.1741 58.227 79.5501 58.4235C79.9295 58.6199 80.2225 58.8858 80.4291 59.2212C80.6391 59.5531 80.7441 59.9257 80.7441 60.339H80.1192C80.1192 60.0172 80.043 59.7309 79.8905 59.4803C79.7415 59.2262 79.5247 59.0281 79.2402 58.8858C78.959 58.7402 78.6152 58.6673 78.2088 58.6673C77.8023 58.6673 77.4602 58.73 77.1824 58.8553C76.908 58.9773 76.6997 59.1416 76.5575 59.3482C76.4186 59.5514 76.3491 59.7784 76.3491 60.029C76.3491 60.2052 76.383 60.3677 76.4508 60.5168C76.5185 60.6624 76.6286 60.7996 76.781 60.9283C76.9368 61.0537 77.1418 61.1722 77.3958 61.284C77.6499 61.3924 77.9632 61.4957 78.3358 61.5939C78.7287 61.7023 79.0776 61.8226 79.3824 61.9547C79.6873 62.0868 79.9447 62.2392 80.1547 62.412C80.3648 62.5813 80.524 62.7795 80.6323 63.0064C80.7407 63.2334 80.7949 63.4976 80.7949 63.799C80.7949 64.1005 80.7306 64.3715 80.6019 64.612C80.4765 64.8491 80.2987 65.0506 80.0684 65.2166C79.8414 65.3826 79.5721 65.5096 79.2605 65.5977C78.9523 65.6858 78.6152 65.7298 78.2494 65.7298C77.9208 65.7298 77.594 65.6874 77.2688 65.6028C76.9436 65.5181 76.6455 65.3877 76.3746 65.2115C76.107 65.032 75.8919 64.8017 75.7293 64.5205C75.5701 64.2394 75.4905 63.9041 75.4905 63.5145H76.1103C76.1103 63.8261 76.173 64.0887 76.2983 64.3021C76.4237 64.5155 76.5896 64.6882 76.7963 64.8203C77.0063 64.9524 77.2366 65.0489 77.4873 65.1099C77.7413 65.1675 77.9954 65.1963 78.2494 65.1963C78.6389 65.1963 78.976 65.1387 79.2605 65.0235C79.5484 64.9084 79.7703 64.7475 79.9261 64.5409C80.0853 64.3308 80.1649 64.087 80.1649 63.8092Z" fill="white"/>
<path d="M84.4514 61.2688V65.6282H83.8416V60.1306H84.4259L84.4514 61.2688ZM84.3396 62.539L84.0449 62.3866C84.0652 62.0614 84.1262 61.7565 84.2278 61.472C84.3328 61.1875 84.4784 60.9368 84.6647 60.72C84.851 60.5032 85.0746 60.3339 85.3354 60.2119C85.5962 60.09 85.8926 60.029 86.2246 60.029C86.4922 60.029 86.7344 60.0663 86.9512 60.1408C87.1713 60.2119 87.3576 60.3254 87.51 60.4812C87.6659 60.6336 87.7861 60.8335 87.8708 61.0808C87.9555 61.328 87.9978 61.6244 87.9978 61.9699V65.6282H87.3932V61.9902C87.3932 61.6244 87.3356 61.3382 87.2204 61.1316C87.1087 60.925 86.9512 60.7776 86.7479 60.6895C86.5481 60.6015 86.316 60.5574 86.0518 60.5574C85.7402 60.5574 85.476 60.6218 85.2592 60.7505C85.0458 60.8758 84.8714 61.0401 84.7359 61.2434C84.6038 61.4432 84.5055 61.6583 84.4412 61.8886C84.3768 62.1156 84.343 62.3324 84.3396 62.539ZM87.9927 62.0614L87.5863 62.0715C87.6032 61.8039 87.6642 61.5482 87.7692 61.3043C87.8776 61.0604 88.0249 60.8437 88.2112 60.654C88.3975 60.4609 88.6194 60.3085 88.8768 60.1967C89.1376 60.0849 89.4306 60.029 89.7558 60.029C90.0403 60.029 90.2944 60.068 90.5179 60.1459C90.7415 60.2204 90.9295 60.3407 91.0819 60.5066C91.2377 60.6692 91.3563 60.8775 91.4376 61.1316C91.5189 61.3856 91.5595 61.6905 91.5595 62.0461V65.6282H90.9498V62.0411C90.9498 61.6515 90.8922 61.3501 90.7771 61.1367C90.6653 60.9199 90.5095 60.7691 90.3096 60.6845C90.1098 60.5998 89.8761 60.5574 89.6085 60.5574C89.3443 60.5608 89.1122 60.6099 88.9124 60.7048C88.7125 60.7962 88.5449 60.9182 88.4094 61.0706C88.2773 61.2196 88.1756 61.3805 88.1045 61.5533C88.0368 61.726 87.9995 61.8954 87.9927 62.0614Z" fill="white"/>
<path d="M98.3204 64.6425V61.8073C98.3204 61.5465 98.2662 61.3213 98.1578 61.1316C98.0494 60.9419 97.8902 60.7962 97.6802 60.6946C97.4702 60.593 97.211 60.5422 96.9028 60.5422C96.6183 60.5422 96.3642 60.593 96.1407 60.6946C95.9205 60.7929 95.746 60.9266 95.6173 61.096C95.492 61.262 95.4293 61.4466 95.4293 61.6498L94.8196 61.6447C94.8196 61.4381 94.8704 61.2383 94.9721 61.0452C95.0737 60.8521 95.2176 60.6794 95.4039 60.527C95.5902 60.3745 95.8121 60.2543 96.0695 60.1662C96.3303 60.0748 96.6166 60.029 96.9282 60.029C97.3211 60.029 97.6666 60.0951 97.9647 60.2272C98.2662 60.3593 98.5016 60.5574 98.6709 60.8216C98.8403 61.0858 98.925 61.4178 98.925 61.8175V64.4748C98.925 64.6645 98.9385 64.861 98.9656 65.0642C98.9961 65.2674 99.0385 65.4351 99.0927 65.5672V65.6282H98.4474C98.4067 65.5062 98.3746 65.3538 98.3509 65.1709C98.3305 64.9846 98.3204 64.8085 98.3204 64.6425ZM98.4626 62.4272L98.4728 62.8946H97.2788C96.9672 62.8946 96.6877 62.9234 96.4404 62.981C96.1966 63.0352 95.9899 63.1165 95.8206 63.2249C95.6512 63.3299 95.5208 63.4569 95.4293 63.606C95.3413 63.755 95.2972 63.9244 95.2972 64.1141C95.2972 64.3105 95.3463 64.49 95.4446 64.6526C95.5462 64.8152 95.6885 64.9456 95.8714 65.0439C96.0577 65.1387 96.2778 65.1861 96.5319 65.1861C96.8706 65.1861 97.1687 65.1235 97.4261 64.9981C97.6869 64.8728 97.902 64.7085 98.0714 64.5053C98.2408 64.3021 98.3542 64.0802 98.4118 63.8397L98.676 64.1903C98.632 64.3596 98.5507 64.5341 98.4321 64.7136C98.317 64.8897 98.1662 65.0557 97.9799 65.2115C97.7936 65.364 97.5735 65.4893 97.3194 65.5875C97.0688 65.6824 96.7842 65.7298 96.4658 65.7298C96.1068 65.7298 95.7935 65.662 95.5259 65.5266C95.2617 65.3911 95.055 65.2065 94.906 64.9727C94.7604 64.7356 94.6875 64.468 94.6875 64.17C94.6875 63.899 94.7451 63.6568 94.8603 63.4434C94.9754 63.2266 95.1414 63.0437 95.3582 62.8946C95.5784 62.7422 95.8426 62.6271 96.1508 62.5491C96.4625 62.4679 96.8113 62.4272 97.1975 62.4272H98.4626Z" fill="white"/>
<path d="M103.034 61.0401V65.6282H102.429V60.1306H103.018L103.034 61.0401ZM104.98 60.09L104.964 60.6489C104.897 60.6387 104.831 60.6303 104.766 60.6235C104.702 60.6167 104.632 60.6133 104.558 60.6133C104.294 60.6133 104.062 60.6624 103.862 60.7607C103.665 60.8555 103.499 60.9893 103.364 61.1621C103.228 61.3314 103.125 61.5313 103.054 61.7616C102.983 61.9886 102.942 62.2324 102.932 62.4933L102.708 62.5796C102.708 62.2206 102.746 61.8869 102.82 61.5787C102.895 61.2705 103.008 61.0012 103.161 60.7708C103.316 60.5371 103.511 60.3559 103.745 60.2272C103.982 60.0951 104.26 60.029 104.578 60.029C104.656 60.029 104.732 60.0358 104.807 60.0493C104.885 60.0595 104.942 60.0731 104.98 60.09Z" fill="white"/>
<path d="M110.14 60.1306V60.6286H107.386V60.1306H110.14ZM108.397 58.7182H109.002V64.2919C109.002 64.5459 109.036 64.7373 109.103 64.866C109.171 64.9948 109.259 65.0811 109.368 65.1252C109.476 65.1692 109.593 65.1912 109.718 65.1912C109.81 65.1912 109.898 65.1861 109.982 65.176C110.067 65.1624 110.143 65.1489 110.211 65.1353L110.236 65.6485C110.162 65.6722 110.065 65.6908 109.947 65.7044C109.828 65.7213 109.71 65.7298 109.591 65.7298C109.357 65.7298 109.151 65.6874 108.971 65.6028C108.792 65.5147 108.651 65.3657 108.55 65.1556C108.448 64.9422 108.397 64.6526 108.397 64.2868V58.7182Z" fill="white"/>
<path d="M122.031 63.8092C122.031 63.606 121.997 63.4248 121.929 63.2656C121.861 63.1064 121.75 62.9641 121.594 62.8388C121.441 62.71 121.235 62.5915 120.974 62.4831C120.716 62.3713 120.395 62.2612 120.008 62.1528C119.639 62.0478 119.306 61.9327 119.008 61.8073C118.709 61.682 118.454 61.538 118.24 61.3755C118.03 61.2129 117.869 61.0232 117.758 60.8064C117.646 60.5862 117.59 60.3305 117.59 60.0392C117.59 59.7547 117.651 59.4955 117.773 59.2618C117.895 59.0281 118.066 58.8265 118.286 58.6572C118.51 58.4878 118.772 58.3574 119.074 58.266C119.378 58.1745 119.712 58.1288 120.075 58.1288C120.593 58.1288 121.04 58.227 121.416 58.4235C121.795 58.6199 122.088 58.8858 122.295 59.2212C122.505 59.5531 122.61 59.9257 122.61 60.339H121.985C121.985 60.0172 121.909 59.7309 121.756 59.4803C121.607 59.2262 121.39 59.0281 121.106 58.8858C120.825 58.7402 120.481 58.6673 120.075 58.6673C119.668 58.6673 119.326 58.73 119.048 58.8553C118.774 58.9773 118.566 59.1416 118.423 59.3482C118.284 59.5514 118.215 59.7784 118.215 60.029C118.215 60.2052 118.249 60.3677 118.317 60.5168C118.384 60.6624 118.494 60.7996 118.647 60.9283C118.803 61.0537 119.008 61.1722 119.262 61.284C119.516 61.3924 119.829 61.4957 120.202 61.5939C120.594 61.7023 120.943 61.8226 121.248 61.9547C121.553 62.0868 121.811 62.2392 122.021 62.412C122.231 62.5813 122.39 62.7795 122.498 63.0064C122.607 63.2334 122.661 63.4976 122.661 63.799C122.661 64.1005 122.596 64.3715 122.468 64.612C122.342 64.8491 122.164 65.0506 121.934 65.2166C121.707 65.3826 121.438 65.5096 121.126 65.5977C120.818 65.6858 120.481 65.7298 120.115 65.7298C119.787 65.7298 119.46 65.6874 119.135 65.6028C118.809 65.5181 118.511 65.3877 118.24 65.2115C117.973 65.032 117.758 64.8017 117.595 64.5205C117.436 64.2394 117.356 63.9041 117.356 63.5145H117.976C117.976 63.8261 118.039 64.0887 118.164 64.3021C118.289 64.5155 118.455 64.6882 118.662 64.8203C118.872 64.9524 119.102 65.0489 119.353 65.1099C119.607 65.1675 119.861 65.1963 120.115 65.1963C120.505 65.1963 120.842 65.1387 121.126 65.0235C121.414 64.9084 121.636 64.7475 121.792 64.5409C121.951 64.3308 122.031 64.087 122.031 63.8092Z" fill="white"/>
<path d="M125.408 62.9658V62.7981C125.408 62.3984 125.465 62.0292 125.58 61.6905C125.696 61.3517 125.86 61.0588 126.073 60.8115C126.29 60.5642 126.549 60.3728 126.851 60.2373C127.152 60.0985 127.487 60.029 127.857 60.029C128.229 60.029 128.566 60.0985 128.868 60.2373C129.169 60.3728 129.428 60.5642 129.645 60.8115C129.862 61.0588 130.028 61.3517 130.143 61.6905C130.258 62.0292 130.316 62.3984 130.316 62.7981V62.9658C130.316 63.3655 130.258 63.7347 130.143 64.0734C130.028 64.4088 129.862 64.7001 129.645 64.9473C129.432 65.1946 129.174 65.3877 128.873 65.5266C128.571 65.662 128.236 65.7298 127.867 65.7298C127.494 65.7298 127.157 65.662 126.856 65.5266C126.554 65.3877 126.295 65.1946 126.078 64.9473C125.862 64.7001 125.696 64.4088 125.58 64.0734C125.465 63.7347 125.408 63.3655 125.408 62.9658ZM126.012 62.7981V62.9658C126.012 63.2672 126.053 63.5535 126.134 63.8245C126.216 64.092 126.334 64.3308 126.49 64.5409C126.646 64.7475 126.839 64.9101 127.069 65.0286C127.299 65.1472 127.565 65.2065 127.867 65.2065C128.165 65.2065 128.427 65.1472 128.654 65.0286C128.885 64.9101 129.078 64.7475 129.234 64.5409C129.389 64.3308 129.506 64.092 129.584 63.8245C129.665 63.5535 129.706 63.2672 129.706 62.9658V62.7981C129.706 62.5 129.665 62.2172 129.584 61.9496C129.506 61.682 129.388 61.4432 129.228 61.2332C129.073 61.0232 128.88 60.8572 128.649 60.7353C128.419 60.6133 128.155 60.5524 127.857 60.5524C127.559 60.5524 127.294 60.6133 127.064 60.7353C126.837 60.8572 126.644 61.0232 126.485 61.2332C126.329 61.4432 126.21 61.682 126.129 61.9496C126.051 62.2172 126.012 62.5 126.012 62.7981Z" fill="white"/>
<path d="M134.125 57.8239V65.6282H133.52V57.8239H134.125Z" fill="white"/>
<path d="M141.18 64.3579V60.1306H141.79V65.6282H141.206L141.18 64.3579ZM141.292 63.3418L141.607 63.3316C141.607 63.6771 141.566 63.9955 141.485 64.2868C141.404 64.5781 141.277 64.8322 141.104 65.0489C140.931 65.2657 140.708 65.4334 140.433 65.552C140.159 65.6705 139.829 65.7298 139.442 65.7298C139.175 65.7298 138.929 65.6925 138.706 65.618C138.486 65.5401 138.296 65.4182 138.137 65.2522C137.978 65.0862 137.854 64.8711 137.766 64.6069C137.681 64.3427 137.639 64.0226 137.639 63.6466V60.1306H138.243V63.6568C138.243 63.9515 138.276 64.1971 138.34 64.3935C138.408 64.59 138.499 64.7475 138.614 64.866C138.733 64.9846 138.868 65.0693 139.021 65.1201C139.173 65.1709 139.337 65.1963 139.514 65.1963C139.961 65.1963 140.313 65.1099 140.57 64.9372C140.831 64.7644 141.016 64.5375 141.124 64.2563C141.236 63.9718 141.292 63.6669 141.292 63.3418Z" fill="white"/>
<path d="M147.331 60.1306V60.6286H144.577V60.1306H147.331ZM145.589 58.7182H146.193V64.2919C146.193 64.5459 146.227 64.7373 146.295 64.866C146.363 64.9948 146.451 65.0811 146.559 65.1252C146.667 65.1692 146.784 65.1912 146.91 65.1912C147.001 65.1912 147.089 65.1861 147.174 65.176C147.258 65.1624 147.335 65.1489 147.402 65.1353L147.428 65.6485C147.353 65.6722 147.257 65.6908 147.138 65.7044C147.02 65.7213 146.901 65.7298 146.783 65.7298C146.549 65.7298 146.342 65.6874 146.163 65.6028C145.983 65.5147 145.843 65.3657 145.741 65.1556C145.639 64.9422 145.589 64.6526 145.589 64.2868V58.7182Z" fill="white"/>
<path d="M151.155 60.1306V65.6282H150.551V60.1306H151.155ZM150.444 58.5403C150.444 58.4252 150.48 58.3286 150.551 58.2507C150.625 58.1694 150.727 58.1288 150.856 58.1288C150.984 58.1288 151.086 58.1694 151.16 58.2507C151.238 58.3286 151.277 58.4252 151.277 58.5403C151.277 58.6521 151.238 58.7486 151.16 58.8299C151.086 58.9078 150.984 58.9468 150.856 58.9468C150.727 58.9468 150.625 58.9078 150.551 58.8299C150.48 58.7486 150.444 58.6521 150.444 58.5403Z" fill="white"/>
<path d="M154.355 62.9658V62.7981C154.355 62.3984 154.412 62.0292 154.527 61.6905C154.642 61.3517 154.807 61.0588 155.02 60.8115C155.237 60.5642 155.496 60.3728 155.797 60.2373C156.099 60.0985 156.434 60.029 156.804 60.029C157.176 60.029 157.513 60.0985 157.815 60.2373C158.116 60.3728 158.375 60.5642 158.592 60.8115C158.809 61.0588 158.975 61.3517 159.09 61.6905C159.205 62.0292 159.263 62.3984 159.263 62.7981V62.9658C159.263 63.3655 159.205 63.7347 159.09 64.0734C158.975 64.4088 158.809 64.7001 158.592 64.9473C158.379 65.1946 158.121 65.3877 157.82 65.5266C157.518 65.662 157.183 65.7298 156.814 65.7298C156.441 65.7298 156.104 65.662 155.803 65.5266C155.501 65.3877 155.242 65.1946 155.025 64.9473C154.808 64.7001 154.642 64.4088 154.527 64.0734C154.412 63.7347 154.355 63.3655 154.355 62.9658ZM154.959 62.7981V62.9658C154.959 63.2672 155 63.5535 155.081 63.8245C155.162 64.092 155.281 64.3308 155.437 64.5409C155.593 64.7475 155.786 64.9101 156.016 65.0286C156.246 65.1472 156.512 65.2065 156.814 65.2065C157.112 65.2065 157.374 65.1472 157.601 65.0286C157.832 64.9101 158.025 64.7475 158.18 64.5409C158.336 64.3308 158.453 64.092 158.531 63.8245C158.612 63.5535 158.653 63.2672 158.653 62.9658V62.7981C158.653 62.5 158.612 62.2172 158.531 61.9496C158.453 61.682 158.335 61.4432 158.175 61.2332C158.02 61.0232 157.826 60.8572 157.596 60.7353C157.366 60.6133 157.102 60.5524 156.804 60.5524C156.505 60.5524 156.241 60.6133 156.011 60.7353C155.784 60.8572 155.591 61.0232 155.432 61.2332C155.276 61.4432 155.157 61.682 155.076 61.9496C154.998 62.2172 154.959 62.5 154.959 62.7981Z" fill="white"/>
<path d="M163 61.3043V65.6282H162.396V60.1306H162.975L163 61.3043ZM162.863 62.539L162.594 62.3866C162.614 62.0614 162.68 61.7565 162.792 61.472C162.904 61.1875 163.055 60.9368 163.244 60.72C163.437 60.5032 163.663 60.3339 163.92 60.2119C164.181 60.09 164.469 60.029 164.784 60.029C165.058 60.029 165.304 60.0663 165.521 60.1408C165.737 60.2153 165.922 60.3339 166.074 60.4965C166.227 60.6591 166.342 60.8674 166.42 61.1214C166.501 61.3755 166.542 61.6854 166.542 62.0512V65.6282H165.932V62.0461C165.932 61.6668 165.88 61.3704 165.775 61.157C165.67 60.9402 165.521 60.7861 165.327 60.6946C165.134 60.6032 164.906 60.5574 164.642 60.5574C164.35 60.5574 164.094 60.6218 163.874 60.7505C163.658 60.8758 163.475 61.0401 163.326 61.2434C163.18 61.4432 163.068 61.6583 162.99 61.8886C162.912 62.1156 162.87 62.3324 162.863 62.539Z" fill="white"/>
<path d="M173.282 64.2258C173.282 64.0768 173.245 63.9295 173.171 63.7838C173.096 63.6382 172.952 63.5044 172.739 63.3824C172.529 63.2605 172.219 63.1572 171.809 63.0725C171.504 63.0047 171.231 62.9285 170.991 62.8438C170.754 62.7592 170.554 62.6575 170.391 62.539C170.229 62.4204 170.105 62.2782 170.02 62.1122C169.936 61.9462 169.893 61.7498 169.893 61.5228C169.893 61.3196 169.937 61.1282 170.025 60.9487C170.117 60.7658 170.246 60.6066 170.412 60.4711C170.581 60.3322 170.784 60.2238 171.021 60.1459C171.262 60.068 171.531 60.029 171.829 60.029C172.253 60.029 172.615 60.1018 172.916 60.2475C173.221 60.3898 173.453 60.5845 173.613 60.8318C173.775 61.0791 173.856 61.3585 173.856 61.6702H173.252C173.252 61.4805 173.196 61.3009 173.084 61.1316C172.976 60.9622 172.815 60.8233 172.601 60.7149C172.391 60.6066 172.134 60.5524 171.829 60.5524C171.514 60.5524 171.258 60.5998 171.062 60.6946C170.865 60.7895 170.722 60.9097 170.63 61.0554C170.542 61.201 170.498 61.3517 170.498 61.5076C170.498 61.6295 170.517 61.7413 170.554 61.8429C170.594 61.9411 170.666 62.0326 170.767 62.1173C170.872 62.202 171.021 62.2816 171.214 62.3561C171.407 62.4306 171.658 62.5034 171.966 62.5746C172.41 62.6728 172.773 62.793 173.054 62.9353C173.338 63.0742 173.548 63.2469 173.684 63.4535C173.819 63.6568 173.887 63.9041 173.887 64.1954C173.887 64.4223 173.839 64.6306 173.745 64.8203C173.65 65.0066 173.513 65.1675 173.333 65.303C173.157 65.4385 172.944 65.5435 172.693 65.618C172.446 65.6925 172.168 65.7298 171.86 65.7298C171.396 65.7298 171.003 65.6536 170.681 65.5011C170.362 65.3453 170.12 65.1421 169.954 64.8914C169.792 64.6374 169.71 64.3681 169.71 64.0836H170.315C170.335 64.3681 170.425 64.5934 170.584 64.7593C170.744 64.9219 170.938 65.0371 171.169 65.1048C171.402 65.1726 171.633 65.2065 171.86 65.2065C172.171 65.2065 172.432 65.1607 172.642 65.0693C172.852 64.9778 173.011 64.8576 173.12 64.7085C173.228 64.5595 173.282 64.3986 173.282 64.2258Z" fill="white"/>
<path d="M80.1649 63.8092C80.1649 63.606 80.131 63.4248 80.0633 63.2656C79.9955 63.1064 79.8838 62.9641 79.7279 62.8388C79.5755 62.71 79.3689 62.5915 79.1081 62.4831C78.8506 62.3713 78.5289 62.2612 78.1427 62.1528C77.7735 62.0478 77.4398 61.9327 77.1418 61.8073C76.8437 61.682 76.588 61.538 76.3746 61.3755C76.1645 61.2129 76.0036 61.0232 75.8919 60.8064C75.7801 60.5862 75.7242 60.3305 75.7242 60.0392C75.7242 59.7547 75.7852 59.4955 75.9071 59.2618C76.0291 59.0281 76.2001 58.8265 76.4203 58.6572C76.6438 58.4878 76.9064 58.3574 77.2078 58.266C77.5127 58.1745 77.8463 58.1288 78.2088 58.1288C78.727 58.1288 79.1741 58.227 79.5501 58.4235C79.9295 58.6199 80.2225 58.8858 80.4291 59.2212C80.6391 59.5531 80.7441 59.9257 80.7441 60.339H80.1192C80.1192 60.0172 80.043 59.7309 79.8905 59.4803C79.7415 59.2262 79.5247 59.0281 79.2402 58.8858C78.959 58.7402 78.6152 58.6673 78.2088 58.6673C77.8023 58.6673 77.4602 58.73 77.1824 58.8553C76.908 58.9773 76.6997 59.1416 76.5575 59.3482C76.4186 59.5514 76.3491 59.7784 76.3491 60.029C76.3491 60.2052 76.383 60.3677 76.4508 60.5168C76.5185 60.6624 76.6286 60.7996 76.781 60.9283C76.9368 61.0537 77.1418 61.1722 77.3958 61.284C77.6499 61.3924 77.9632 61.4957 78.3358 61.5939C78.7287 61.7023 79.0776 61.8226 79.3824 61.9547C79.6873 62.0868 79.9447 62.2392 80.1547 62.412C80.3648 62.5813 80.524 62.7795 80.6323 63.0064C80.7407 63.2334 80.7949 63.4976 80.7949 63.799C80.7949 64.1005 80.7306 64.3715 80.6019 64.612C80.4765 64.8491 80.2987 65.0506 80.0684 65.2166C79.8414 65.3826 79.5721 65.5096 79.2605 65.5977C78.9523 65.6858 78.6152 65.7298 78.2494 65.7298C77.9208 65.7298 77.594 65.6874 77.2688 65.6028C76.9436 65.5181 76.6455 65.3877 76.3746 65.2115C76.107 65.032 75.8919 64.8017 75.7293 64.5205C75.5701 64.2394 75.4905 63.9041 75.4905 63.5145H76.1103C76.1103 63.8261 76.173 64.0887 76.2983 64.3021C76.4237 64.5155 76.5896 64.6882 76.7963 64.8203C77.0063 64.9524 77.2366 65.0489 77.4873 65.1099C77.7413 65.1675 77.9954 65.1963 78.2494 65.1963C78.6389 65.1963 78.976 65.1387 79.2605 65.0235C79.5484 64.9084 79.7703 64.7475 79.9261 64.5409C80.0853 64.3308 80.1649 64.087 80.1649 63.8092Z" stroke="white" stroke-width="0.5"/>
<path d="M84.4514 61.2688V65.6282H83.8416V60.1306H84.4259L84.4514 61.2688ZM84.3396 62.539L84.0449 62.3866C84.0652 62.0614 84.1262 61.7565 84.2278 61.472C84.3328 61.1875 84.4784 60.9368 84.6647 60.72C84.851 60.5032 85.0746 60.3339 85.3354 60.2119C85.5962 60.09 85.8926 60.029 86.2246 60.029C86.4922 60.029 86.7344 60.0663 86.9512 60.1408C87.1713 60.2119 87.3576 60.3254 87.51 60.4812C87.6659 60.6336 87.7861 60.8335 87.8708 61.0808C87.9555 61.328 87.9978 61.6244 87.9978 61.9699V65.6282H87.3932V61.9902C87.3932 61.6244 87.3356 61.3382 87.2204 61.1316C87.1087 60.925 86.9512 60.7776 86.7479 60.6895C86.5481 60.6015 86.316 60.5574 86.0518 60.5574C85.7402 60.5574 85.476 60.6218 85.2592 60.7505C85.0458 60.8758 84.8714 61.0401 84.7359 61.2434C84.6038 61.4432 84.5055 61.6583 84.4412 61.8886C84.3768 62.1156 84.343 62.3324 84.3396 62.539ZM87.9927 62.0614L87.5863 62.0715C87.6032 61.8039 87.6642 61.5482 87.7692 61.3043C87.8776 61.0604 88.0249 60.8437 88.2112 60.654C88.3975 60.4609 88.6194 60.3085 88.8768 60.1967C89.1376 60.0849 89.4306 60.029 89.7558 60.029C90.0403 60.029 90.2944 60.068 90.5179 60.1459C90.7415 60.2204 90.9295 60.3407 91.0819 60.5066C91.2377 60.6692 91.3563 60.8775 91.4376 61.1316C91.5189 61.3856 91.5595 61.6905 91.5595 62.0461V65.6282H90.9498V62.0411C90.9498 61.6515 90.8922 61.3501 90.7771 61.1367C90.6653 60.9199 90.5095 60.7691 90.3096 60.6845C90.1098 60.5998 89.8761 60.5574 89.6085 60.5574C89.3443 60.5608 89.1122 60.6099 88.9124 60.7048C88.7125 60.7962 88.5449 60.9182 88.4094 61.0706C88.2773 61.2196 88.1756 61.3805 88.1045 61.5533C88.0368 61.726 87.9995 61.8954 87.9927 62.0614Z" stroke="white" stroke-width="0.5"/>
<path d="M98.3204 64.6425V61.8073C98.3204 61.5465 98.2662 61.3213 98.1578 61.1316C98.0494 60.9419 97.8902 60.7962 97.6802 60.6946C97.4702 60.593 97.211 60.5422 96.9028 60.5422C96.6183 60.5422 96.3642 60.593 96.1407 60.6946C95.9205 60.7929 95.746 60.9266 95.6173 61.096C95.492 61.262 95.4293 61.4466 95.4293 61.6498L94.8196 61.6447C94.8196 61.4381 94.8704 61.2383 94.9721 61.0452C95.0737 60.8521 95.2176 60.6794 95.4039 60.527C95.5902 60.3745 95.8121 60.2543 96.0695 60.1662C96.3303 60.0748 96.6166 60.029 96.9282 60.029C97.3211 60.029 97.6666 60.0951 97.9647 60.2272C98.2662 60.3593 98.5016 60.5574 98.6709 60.8216C98.8403 61.0858 98.925 61.4178 98.925 61.8175V64.4748C98.925 64.6645 98.9385 64.861 98.9656 65.0642C98.9961 65.2674 99.0385 65.4351 99.0927 65.5672V65.6282H98.4474C98.4067 65.5062 98.3746 65.3538 98.3509 65.1709C98.3305 64.9846 98.3204 64.8085 98.3204 64.6425ZM98.4626 62.4272L98.4728 62.8946H97.2788C96.9672 62.8946 96.6877 62.9234 96.4404 62.981C96.1966 63.0352 95.9899 63.1165 95.8206 63.2249C95.6512 63.3299 95.5208 63.4569 95.4293 63.606C95.3413 63.755 95.2972 63.9244 95.2972 64.1141C95.2972 64.3105 95.3463 64.49 95.4446 64.6526C95.5462 64.8152 95.6885 64.9456 95.8714 65.0439C96.0577 65.1387 96.2778 65.1861 96.5319 65.1861C96.8706 65.1861 97.1687 65.1235 97.4261 64.9981C97.6869 64.8728 97.902 64.7085 98.0714 64.5053C98.2408 64.3021 98.3542 64.0802 98.4118 63.8397L98.676 64.1903C98.632 64.3596 98.5507 64.5341 98.4321 64.7136C98.317 64.8897 98.1662 65.0557 97.9799 65.2115C97.7936 65.364 97.5735 65.4893 97.3194 65.5875C97.0688 65.6824 96.7842 65.7298 96.4658 65.7298C96.1068 65.7298 95.7935 65.662 95.5259 65.5266C95.2617 65.3911 95.055 65.2065 94.906 64.9727C94.7604 64.7356 94.6875 64.468 94.6875 64.17C94.6875 63.899 94.7451 63.6568 94.8603 63.4434C94.9754 63.2266 95.1414 63.0437 95.3582 62.8946C95.5784 62.7422 95.8426 62.6271 96.1508 62.5491C96.4625 62.4679 96.8113 62.4272 97.1975 62.4272H98.4626Z" stroke="white" stroke-width="0.5"/>
<path d="M103.034 61.0401V65.6282H102.429V60.1306H103.018L103.034 61.0401ZM104.98 60.09L104.964 60.6489C104.897 60.6387 104.831 60.6303 104.766 60.6235C104.702 60.6167 104.632 60.6133 104.558 60.6133C104.294 60.6133 104.062 60.6624 103.862 60.7607C103.665 60.8555 103.499 60.9893 103.364 61.1621C103.228 61.3314 103.125 61.5313 103.054 61.7616C102.983 61.9886 102.942 62.2324 102.932 62.4933L102.708 62.5796C102.708 62.2206 102.746 61.8869 102.82 61.5787C102.895 61.2705 103.008 61.0012 103.161 60.7708C103.316 60.5371 103.511 60.3559 103.745 60.2272C103.982 60.0951 104.26 60.029 104.578 60.029C104.656 60.029 104.732 60.0358 104.807 60.0493C104.885 60.0595 104.942 60.0731 104.98 60.09Z" stroke="white" stroke-width="0.5"/>
<path d="M110.14 60.1306V60.6286H107.386V60.1306H110.14ZM108.397 58.7182H109.002V64.2919C109.002 64.5459 109.036 64.7373 109.103 64.866C109.171 64.9948 109.259 65.0811 109.368 65.1252C109.476 65.1692 109.593 65.1912 109.718 65.1912C109.81 65.1912 109.898 65.1861 109.982 65.176C110.067 65.1624 110.143 65.1489 110.211 65.1353L110.236 65.6485C110.162 65.6722 110.065 65.6908 109.947 65.7044C109.828 65.7213 109.71 65.7298 109.591 65.7298C109.357 65.7298 109.151 65.6874 108.971 65.6028C108.792 65.5147 108.651 65.3657 108.55 65.1556C108.448 64.9422 108.397 64.6526 108.397 64.2868V58.7182Z" stroke="white" stroke-width="0.5"/>
<path d="M122.031 63.8092C122.031 63.606 121.997 63.4248 121.929 63.2656C121.861 63.1064 121.75 62.9641 121.594 62.8388C121.441 62.71 121.235 62.5915 120.974 62.4831C120.716 62.3713 120.395 62.2612 120.008 62.1528C119.639 62.0478 119.306 61.9327 119.008 61.8073C118.709 61.682 118.454 61.538 118.24 61.3755C118.03 61.2129 117.869 61.0232 117.758 60.8064C117.646 60.5862 117.59 60.3305 117.59 60.0392C117.59 59.7547 117.651 59.4955 117.773 59.2618C117.895 59.0281 118.066 58.8265 118.286 58.6572C118.51 58.4878 118.772 58.3574 119.074 58.266C119.378 58.1745 119.712 58.1288 120.075 58.1288C120.593 58.1288 121.04 58.227 121.416 58.4235C121.795 58.6199 122.088 58.8858 122.295 59.2212C122.505 59.5531 122.61 59.9257 122.61 60.339H121.985C121.985 60.0172 121.909 59.7309 121.756 59.4803C121.607 59.2262 121.39 59.0281 121.106 58.8858C120.825 58.7402 120.481 58.6673 120.075 58.6673C119.668 58.6673 119.326 58.73 119.048 58.8553C118.774 58.9773 118.566 59.1416 118.423 59.3482C118.284 59.5514 118.215 59.7784 118.215 60.029C118.215 60.2052 118.249 60.3677 118.317 60.5168C118.384 60.6624 118.494 60.7996 118.647 60.9283C118.803 61.0537 119.008 61.1722 119.262 61.284C119.516 61.3924 119.829 61.4957 120.202 61.5939C120.594 61.7023 120.943 61.8226 121.248 61.9547C121.553 62.0868 121.811 62.2392 122.021 62.412C122.231 62.5813 122.39 62.7795 122.498 63.0064C122.607 63.2334 122.661 63.4976 122.661 63.799C122.661 64.1005 122.596 64.3715 122.468 64.612C122.342 64.8491 122.164 65.0506 121.934 65.2166C121.707 65.3826 121.438 65.5096 121.126 65.5977C120.818 65.6858 120.481 65.7298 120.115 65.7298C119.787 65.7298 119.46 65.6874 119.135 65.6028C118.809 65.5181 118.511 65.3877 118.24 65.2115C117.973 65.032 117.758 64.8017 117.595 64.5205C117.436 64.2394 117.356 63.9041 117.356 63.5145H117.976C117.976 63.8261 118.039 64.0887 118.164 64.3021C118.289 64.5155 118.455 64.6882 118.662 64.8203C118.872 64.9524 119.102 65.0489 119.353 65.1099C119.607 65.1675 119.861 65.1963 120.115 65.1963C120.505 65.1963 120.842 65.1387 121.126 65.0235C121.414 64.9084 121.636 64.7475 121.792 64.5409C121.951 64.3308 122.031 64.087 122.031 63.8092Z" stroke="white" stroke-width="0.5"/>
<path d="M125.408 62.9658V62.7981C125.408 62.3984 125.465 62.0292 125.58 61.6905C125.696 61.3517 125.86 61.0588 126.073 60.8115C126.29 60.5642 126.549 60.3728 126.851 60.2373C127.152 60.0985 127.487 60.029 127.857 60.029C128.229 60.029 128.566 60.0985 128.868 60.2373C129.169 60.3728 129.428 60.5642 129.645 60.8115C129.862 61.0588 130.028 61.3517 130.143 61.6905C130.258 62.0292 130.316 62.3984 130.316 62.7981V62.9658C130.316 63.3655 130.258 63.7347 130.143 64.0734C130.028 64.4088 129.862 64.7001 129.645 64.9473C129.432 65.1946 129.174 65.3877 128.873 65.5266C128.571 65.662 128.236 65.7298 127.867 65.7298C127.494 65.7298 127.157 65.662 126.856 65.5266C126.554 65.3877 126.295 65.1946 126.078 64.9473C125.862 64.7001 125.696 64.4088 125.58 64.0734C125.465 63.7347 125.408 63.3655 125.408 62.9658ZM126.012 62.7981V62.9658C126.012 63.2672 126.053 63.5535 126.134 63.8245C126.216 64.092 126.334 64.3308 126.49 64.5409C126.646 64.7475 126.839 64.9101 127.069 65.0286C127.299 65.1472 127.565 65.2065 127.867 65.2065C128.165 65.2065 128.427 65.1472 128.654 65.0286C128.885 64.9101 129.078 64.7475 129.234 64.5409C129.389 64.3308 129.506 64.092 129.584 63.8245C129.665 63.5535 129.706 63.2672 129.706 62.9658V62.7981C129.706 62.5 129.665 62.2172 129.584 61.9496C129.506 61.682 129.388 61.4432 129.228 61.2332C129.073 61.0232 128.88 60.8572 128.649 60.7353C128.419 60.6133 128.155 60.5524 127.857 60.5524C127.559 60.5524 127.294 60.6133 127.064 60.7353C126.837 60.8572 126.644 61.0232 126.485 61.2332C126.329 61.4432 126.21 61.682 126.129 61.9496C126.051 62.2172 126.012 62.5 126.012 62.7981Z" stroke="white" stroke-width="0.5"/>
<path d="M134.125 57.8239V65.6282H133.52V57.8239H134.125Z" stroke="white" stroke-width="0.5"/>
<path d="M141.18 64.3579V60.1306H141.79V65.6282H141.206L141.18 64.3579ZM141.292 63.3418L141.607 63.3316C141.607 63.6771 141.566 63.9955 141.485 64.2868C141.404 64.5781 141.277 64.8322 141.104 65.0489C140.931 65.2657 140.708 65.4334 140.433 65.552C140.159 65.6705 139.829 65.7298 139.442 65.7298C139.175 65.7298 138.929 65.6925 138.706 65.618C138.486 65.5401 138.296 65.4182 138.137 65.2522C137.978 65.0862 137.854 64.8711 137.766 64.6069C137.681 64.3427 137.639 64.0226 137.639 63.6466V60.1306H138.243V63.6568C138.243 63.9515 138.276 64.1971 138.34 64.3935C138.408 64.59 138.499 64.7475 138.614 64.866C138.733 64.9846 138.868 65.0693 139.021 65.1201C139.173 65.1709 139.337 65.1963 139.514 65.1963C139.961 65.1963 140.313 65.1099 140.57 64.9372C140.831 64.7644 141.016 64.5375 141.124 64.2563C141.236 63.9718 141.292 63.6669 141.292 63.3418Z" stroke="white" stroke-width="0.5"/>
<path d="M147.331 60.1306V60.6286H144.577V60.1306H147.331ZM145.589 58.7182H146.193V64.2919C146.193 64.5459 146.227 64.7373 146.295 64.866C146.363 64.9948 146.451 65.0811 146.559 65.1252C146.667 65.1692 146.784 65.1912 146.91 65.1912C147.001 65.1912 147.089 65.1861 147.174 65.176C147.258 65.1624 147.335 65.1489 147.402 65.1353L147.428 65.6485C147.353 65.6722 147.257 65.6908 147.138 65.7044C147.02 65.7213 146.901 65.7298 146.783 65.7298C146.549 65.7298 146.342 65.6874 146.163 65.6028C145.983 65.5147 145.843 65.3657 145.741 65.1556C145.639 64.9422 145.589 64.6526 145.589 64.2868V58.7182Z" stroke="white" stroke-width="0.5"/>
<path d="M151.155 60.1306V65.6282H150.551V60.1306H151.155ZM150.444 58.5403C150.444 58.4252 150.48 58.3286 150.551 58.2507C150.625 58.1694 150.727 58.1288 150.856 58.1288C150.984 58.1288 151.086 58.1694 151.16 58.2507C151.238 58.3286 151.277 58.4252 151.277 58.5403C151.277 58.6521 151.238 58.7486 151.16 58.8299C151.086 58.9078 150.984 58.9468 150.856 58.9468C150.727 58.9468 150.625 58.9078 150.551 58.8299C150.48 58.7486 150.444 58.6521 150.444 58.5403Z" stroke="white" stroke-width="0.5"/>
<path d="M154.355 62.9658V62.7981C154.355 62.3984 154.412 62.0292 154.527 61.6905C154.642 61.3517 154.807 61.0588 155.02 60.8115C155.237 60.5642 155.496 60.3728 155.797 60.2373C156.099 60.0985 156.434 60.029 156.804 60.029C157.176 60.029 157.513 60.0985 157.815 60.2373C158.116 60.3728 158.375 60.5642 158.592 60.8115C158.809 61.0588 158.975 61.3517 159.09 61.6905C159.205 62.0292 159.263 62.3984 159.263 62.7981V62.9658C159.263 63.3655 159.205 63.7347 159.09 64.0734C158.975 64.4088 158.809 64.7001 158.592 64.9473C158.379 65.1946 158.121 65.3877 157.82 65.5266C157.518 65.662 157.183 65.7298 156.814 65.7298C156.441 65.7298 156.104 65.662 155.803 65.5266C155.501 65.3877 155.242 65.1946 155.025 64.9473C154.808 64.7001 154.642 64.4088 154.527 64.0734C154.412 63.7347 154.355 63.3655 154.355 62.9658ZM154.959 62.7981V62.9658C154.959 63.2672 155 63.5535 155.081 63.8245C155.162 64.092 155.281 64.3308 155.437 64.5409C155.593 64.7475 155.786 64.9101 156.016 65.0286C156.246 65.1472 156.512 65.2065 156.814 65.2065C157.112 65.2065 157.374 65.1472 157.601 65.0286C157.832 64.9101 158.025 64.7475 158.18 64.5409C158.336 64.3308 158.453 64.092 158.531 63.8245C158.612 63.5535 158.653 63.2672 158.653 62.9658V62.7981C158.653 62.5 158.612 62.2172 158.531 61.9496C158.453 61.682 158.335 61.4432 158.175 61.2332C158.02 61.0232 157.826 60.8572 157.596 60.7353C157.366 60.6133 157.102 60.5524 156.804 60.5524C156.505 60.5524 156.241 60.6133 156.011 60.7353C155.784 60.8572 155.591 61.0232 155.432 61.2332C155.276 61.4432 155.157 61.682 155.076 61.9496C154.998 62.2172 154.959 62.5 154.959 62.7981Z" stroke="white" stroke-width="0.5"/>
<path d="M163 61.3043V65.6282H162.396V60.1306H162.975L163 61.3043ZM162.863 62.539L162.594 62.3866C162.614 62.0614 162.68 61.7565 162.792 61.472C162.904 61.1875 163.055 60.9368 163.244 60.72C163.437 60.5032 163.663 60.3339 163.92 60.2119C164.181 60.09 164.469 60.029 164.784 60.029C165.058 60.029 165.304 60.0663 165.521 60.1408C165.737 60.2153 165.922 60.3339 166.074 60.4965C166.227 60.6591 166.342 60.8674 166.42 61.1214C166.501 61.3755 166.542 61.6854 166.542 62.0512V65.6282H165.932V62.0461C165.932 61.6668 165.88 61.3704 165.775 61.157C165.67 60.9402 165.521 60.7861 165.327 60.6946C165.134 60.6032 164.906 60.5574 164.642 60.5574C164.35 60.5574 164.094 60.6218 163.874 60.7505C163.658 60.8758 163.475 61.0401 163.326 61.2434C163.18 61.4432 163.068 61.6583 162.99 61.8886C162.912 62.1156 162.87 62.3324 162.863 62.539Z" stroke="white" stroke-width="0.5"/>
<path d="M173.282 64.2258C173.282 64.0768 173.245 63.9295 173.171 63.7838C173.096 63.6382 172.952 63.5044 172.739 63.3824C172.529 63.2605 172.219 63.1572 171.809 63.0725C171.504 63.0047 171.231 62.9285 170.991 62.8438C170.754 62.7592 170.554 62.6575 170.391 62.539C170.229 62.4204 170.105 62.2782 170.02 62.1122C169.936 61.9462 169.893 61.7498 169.893 61.5228C169.893 61.3196 169.937 61.1282 170.025 60.9487C170.117 60.7658 170.246 60.6066 170.412 60.4711C170.581 60.3322 170.784 60.2238 171.021 60.1459C171.262 60.068 171.531 60.029 171.829 60.029C172.253 60.029 172.615 60.1018 172.916 60.2475C173.221 60.3898 173.453 60.5845 173.613 60.8318C173.775 61.0791 173.856 61.3585 173.856 61.6702H173.252C173.252 61.4805 173.196 61.3009 173.084 61.1316C172.976 60.9622 172.815 60.8233 172.601 60.7149C172.391 60.6066 172.134 60.5524 171.829 60.5524C171.514 60.5524 171.258 60.5998 171.062 60.6946C170.865 60.7895 170.722 60.9097 170.63 61.0554C170.542 61.201 170.498 61.3517 170.498 61.5076C170.498 61.6295 170.517 61.7413 170.554 61.8429C170.594 61.9411 170.666 62.0326 170.767 62.1173C170.872 62.202 171.021 62.2816 171.214 62.3561C171.407 62.4306 171.658 62.5034 171.966 62.5746C172.41 62.6728 172.773 62.793 173.054 62.9353C173.338 63.0742 173.548 63.2469 173.684 63.4535C173.819 63.6568 173.887 63.9041 173.887 64.1954C173.887 64.4223 173.839 64.6306 173.745 64.8203C173.65 65.0066 173.513 65.1675 173.333 65.303C173.157 65.4385 172.944 65.5435 172.693 65.618C172.446 65.6925 172.168 65.7298 171.86 65.7298C171.396 65.7298 171.003 65.6536 170.681 65.5011C170.362 65.3453 170.12 65.1421 169.954 64.8914C169.792 64.6374 169.71 64.3681 169.71 64.0836H170.315C170.335 64.3681 170.425 64.5934 170.584 64.7593C170.744 64.9219 170.938 65.0371 171.169 65.1048C171.402 65.1726 171.633 65.2065 171.86 65.2065C172.171 65.2065 172.432 65.1607 172.642 65.0693C172.852 64.9778 173.011 64.8576 173.12 64.7085C173.228 64.5595 173.282 64.3986 173.282 64.2258Z" stroke="white" stroke-width="0.5"/>
</g>
<defs>
<filter id="filter0_d_7_3" x="0.934082" y="0.0487061" width="227.065" height="82.0664" filterUnits="userSpaceOnUse" color-interpolation-filters="sRGB">
<feFlood flood-opacity="0" result="BackgroundImageFix"/>
<feColorMatrix in="SourceAlpha" type="matrix" values="0 0 0 0 0 0 0 0 0 0 0 0 0 0 0 0 0 0 127 0" result="hardAlpha"/>
<feOffset dy="1"/>
<feGaussianBlur stdDeviation="5.5"/>
<feComposite in2="hardAlpha" operator="out"/>
<feColorMatrix type="matrix" values="0 0 0 0 0 0 0 0 0 0 0 0 0 0 0 0 0 0 0.25 0"/>
<feBlend mode="normal" in2="BackgroundImageFix" result="effect1_dropShadow_7_3"/>
<feBlend mode="normal" in="SourceGraphic" in2="effect1_dropShadow_7_3" result="shape"/>
</filter>
</defs>
</svg>
